<svg xmlns="http://www.w3.org/2000/svg" width="129.333" height="109.512" viewBox="0 0 129.333 109.512">
  <g id="drama" transform="translate(-0.001)" opacity="0.111">
    <path id="Tracé_2239" data-name="Tracé 2239" d="M235.215,8.768v2.814a29.432,29.432,0,0,1,6.214.088,3.858,3.858,0,0,1,2.871,2.17l5.488,11.7a3.845,3.845,0,0,1,1.82.993,5.162,5.162,0,0,0,2.352,1.37,5.1,5.1,0,0,0,4.829-1.284A3.915,3.915,0,0,1,263.6,26a3.866,3.866,0,0,1,.706,6.023,12.726,12.726,0,0,1-9.06,3.754q-.33,0-.658-.017l7.378,15.726q.468.995.887,2a24.252,24.252,0,0,1,24.359,5.853,3.935,3.935,0,0,1,.26,5.392,3.861,3.861,0,0,1-5.619.169,16.527,16.527,0,0,0-16.563-4.089,51.2,51.2,0,0,1-.212,25.693q1.566.518,3.186.922a7.94,7.94,0,0,0,3.817,0,43.531,43.531,0,0,0,33.057-42.256V8.768a4.327,4.327,0,0,0-2.8-4.054C297.014,2.716,286.737,0,270.175,0s-26.841,2.717-32.16,4.716A4.325,4.325,0,0,0,235.215,8.768Zm42.683,17.8a3.862,3.862,0,0,1,5.461,0,5.089,5.089,0,0,0,7.2,0,3.861,3.861,0,0,1,5.461,5.46,12.811,12.811,0,0,1-18.12,0A3.861,3.861,0,0,1,277.9,26.564Zm0,0" transform="translate(-175.798)" fill="#535353"/>
    <path id="Tracé_2240" data-name="Tracé 2240" d="M79.173,111.878,63.627,78.743a4.053,4.053,0,0,0-3.98-2.317c-5.614.424-16.143,2.286-31.309,9.4-15,7.035-23.146,13.861-27.112,17.928a4.326,4.326,0,0,0-.814,4.859l15.463,32.96a43.533,43.533,0,0,0,47.877,24.213,7.9,7.9,0,0,0,3.44-1.614A43.531,43.531,0,0,0,79.173,111.878Zm-31.242-2.47a12.827,12.827,0,0,1,16.4-7.7,3.861,3.861,0,1,1-2.625,7.262,5.1,5.1,0,0,0-6.517,3.058,3.861,3.861,0,1,1-7.262-2.624ZM33,122.445a5.091,5.091,0,0,0-6.517,3.058,3.861,3.861,0,1,1-7.263-2.624,12.813,12.813,0,0,1,16.4-7.7A3.861,3.861,0,1,1,33,122.445Zm12.965,25.239a24.107,24.107,0,0,1-8.211-1.444,3.861,3.861,0,1,1,2.624-7.262,16.529,16.529,0,0,0,21.138-9.917,3.861,3.861,0,1,1,7.262,2.625A24.276,24.276,0,0,1,45.964,147.683Zm0,0" transform="translate(0 -57.112)" fill="#535353"/>
  </g>
</svg>
