<svg id="gear" xmlns="http://www.w3.org/2000/svg" width="33.732" height="34.866" viewBox="0 0 33.732 34.866">
  <g id="Groupe_495" data-name="Groupe 495" transform="translate(0)">
    <path id="Tracé_2147" data-name="Tracé 2147" d="M41.8,22.336,38.13,19.264a12.134,12.134,0,0,0,0-3.663L41.8,12.53a.725.725,0,0,0,.163-.92L38.622,5.823a.727.727,0,0,0-.878-.319l-4.488,1.64a13.024,13.024,0,0,0-3.179-1.828L29.251.6a.727.727,0,0,0-.716-.6H21.854a.727.727,0,0,0-.716.6l-.826,4.715a13.024,13.024,0,0,0-3.179,1.828L12.646,5.5a.725.725,0,0,0-.878.319L8.426,11.61a.725.725,0,0,0,.163.92L12.259,15.6a12.134,12.134,0,0,0,0,3.663L8.59,22.336a.725.725,0,0,0-.163.92l3.341,5.787a.728.728,0,0,0,.878.319l4.488-1.64a13.024,13.024,0,0,0,3.179,1.828l.826,4.715a.727.727,0,0,0,.716.6h6.682a.727.727,0,0,0,.716-.6l.826-4.715a13.024,13.024,0,0,0,3.179-1.828l4.488,1.64a.73.73,0,0,0,.878-.319l3.341-5.787A.725.725,0,0,0,41.8,22.336ZM25.195,24.7a7.264,7.264,0,1,1,7.264-7.264A7.272,7.272,0,0,1,25.195,24.7Z" transform="translate(-8.329)" fill="#e8fcff"/>
  </g>
</svg>
