<svg xmlns="http://www.w3.org/2000/svg" width="114" height="114" viewBox="0 0 114 114">
  <path id="Union_11" data-name="Union 11" d="M72.248-302.372H36.627l13.024-14.255H93.627a7.125,7.125,0,0,0,7.124-7.124V-366.5h7.124A7.125,7.125,0,0,1,115-359.372V-309.5a7.131,7.131,0,0,1-7.124,7.131H93.627V-281Zm-49.876-28.5H8.124A7.129,7.129,0,0,1,1-338v-49.876A7.129,7.129,0,0,1,8.124-395H79.373a7.125,7.125,0,0,1,7.124,7.124V-338a7.125,7.125,0,0,1-7.124,7.124H43.752L22.373-309.5Z" transform="translate(-1 395)" fill="#535353" opacity="0.111"/>
</svg>
