<svg xmlns="http://www.w3.org/2000/svg" width="50" height="51" viewBox="0 0 50 51">
  <g id="Groupe_666" data-name="Groupe 666" transform="translate(-44 -138)">
    <ellipse id="Ellipse_104" data-name="Ellipse 104" cx="25" cy="25.5" rx="25" ry="25.5" transform="translate(44 138)" fill="#069f9c"/>
    <g id="Groupe_490" data-name="Groupe 490">
      <path id="Tracé_2120" data-name="Tracé 2120" d="M128.165,203.511c-.56-.469-.584-.785-.058-1.343a21.451,21.451,0,0,0,5.456-10.1,19.669,19.669,0,0,0,.522-4.556,32.62,32.62,0,0,0-.074-4.035,6.406,6.406,0,0,0-12.593-.4,7.5,7.5,0,0,0-.146,1.628,24.4,24.4,0,0,1-.136,3.792,7.974,7.974,0,0,1-1.642,3.719c-.7.858-1.453,1.668-2.193,2.49a.668.668,0,0,1-.989.139.682.682,0,0,1,.009-1.025c.667-.763,1.367-1.5,2.013-2.277a6.863,6.863,0,0,0,1.594-4.3c.034-1.186-.085-2.378.063-3.558a7.734,7.734,0,0,1,15.429.663,40.189,40.189,0,0,1-.195,5.951,22.513,22.513,0,0,1-3.857,9.949,25.62,25.62,0,0,1-2.382,2.9,4.079,4.079,0,0,1-.424.348Z" transform="translate(-58.476 -19.741)" fill="#e8fcff"/>
      <path id="Tracé_2121" data-name="Tracé 2121" d="M146.217,236.2c-.555-.476-.566-.767-.065-1.326.9-1,1.828-1.976,2.694-3.009a18.338,18.338,0,0,0,3.855-7.79,19.962,19.962,0,0,0,.46-4.4,22.28,22.28,0,0,0-.054-3,3.558,3.558,0,0,0-5.641-2.421,3.6,3.6,0,0,0-1.48,3.036c-.022,1.226.061,2.453-.071,3.677a11.151,11.151,0,0,1-2.782,6.282c-.658.753-1.331,1.492-2,2.232-.351.385-.745.439-1.041.16s-.279-.662.07-1.057c.707-.8,1.435-1.579,2.127-2.39a9.939,9.939,0,0,0,2.385-6.654c0-.906-.017-1.814.024-2.722a4.89,4.89,0,0,1,9.695-.581,22.322,22.322,0,0,1,.08,3.912,19.573,19.573,0,0,1-5.352,13.437q-.945,1.033-1.88,2.074a2.5,2.5,0,0,1-.616.534Z" transform="translate(-80.371 -52.431)" fill="#e8fcff"/>
      <path id="Tracé_2122" data-name="Tracé 2122" d="M149.1.072c.544.168,1.121.117,1.671.231.624.129,1.258.219,1.882.347a.682.682,0,0,1,.607.831.671.671,0,0,1-.881.464,21.455,21.455,0,0,0-5.549-.519,20.166,20.166,0,0,0-7.563,1.77,5.5,5.5,0,0,1-.588.24.634.634,0,0,1-.829-.341.651.651,0,0,1,.32-.849c.413-.211.841-.4,1.271-.572a21.091,21.091,0,0,1,6.531-1.53c.064,0,.135,0,.167-.074h.64c.044.049.1.039.16.041A.185.185,0,0,0,147.1.07h1.2c.05.054.115.038.177.041s.16.024.223-.041Z" transform="translate(-78.449 142.726)" fill="#e8fcff"/>
      <path id="Tracé_2123" data-name="Tracé 2123" d="M58.17,259.56h-.08v-.72a.068.068,0,0,1,.067-.009A.565.565,0,0,1,58.17,259.56Z" transform="translate(-5.125 -95.315)" fill="#e8fcff"/>
      <path id="Tracé_2124" data-name="Tracé 2124" d="M451.991,209.3l-.031.017-.035-.006a.271.271,0,0,1,0-.42.226.226,0,0,1,.07.009Z" transform="translate(-367.34 -49.375)" fill="#e8fcff"/>
      <path id="Tracé_2125" data-name="Tracé 2125" d="M270.905.1c-.052.116-.151.07-.236.067-.029-.014-.038-.028-.03-.043s.018-.024.026-.024Z" transform="translate(-200.656 142.699)" fill="#e8fcff"/>
      <path id="Tracé_2126" data-name="Tracé 2126" d="M250.16.2c-.066.006-.129.007-.16-.07h.16c.026.016.035.032.026.047S250.167.2,250.16.2Z" transform="translate(-181.672 142.671)" fill="#e8fcff"/>
      <path id="Tracé_2127" data-name="Tracé 2127" d="M252,.2V.13h.16A.136.136,0,0,1,252,.2Z" transform="translate(-183.512 142.671)" fill="#e8fcff"/>
      <path id="Tracé_2128" data-name="Tracé 2128" d="M269.16.1a.383.383,0,0,0,0,.067c-.069.012-.13.006-.164-.067Z" transform="translate(-199.151 142.699)" fill="#e8fcff"/>
      <path id="Tracé_2129" data-name="Tracé 2129" d="M166.085,252.418a17.123,17.123,0,0,1-1.681,7.739,17.513,17.513,0,0,1-2.755,4.094c-.888,1-1.792,1.974-2.692,2.958a1.38,1.38,0,0,1-.3.26.643.643,0,0,1-.911-.82,1.814,1.814,0,0,1,.282-.383c1.012-1.133,2.056-2.241,3.037-3.4a15.371,15.371,0,0,0,3.682-10.177c0-.933.006-1.867-.012-2.8a.687.687,0,0,0-.635-.7.7.7,0,0,0-.775.431,1.3,1.3,0,0,0-.069.55c-.01.933-.007,1.866-.033,2.8a13.918,13.918,0,0,1-3.59,9c-.921,1.054-1.87,2.081-2.8,3.126a.79.79,0,0,1-.644.34.63.63,0,0,1-.564-.387.659.659,0,0,1,.135-.74c.461-.518.929-1.029,1.387-1.55a32.441,32.441,0,0,0,2.506-2.956,12.829,12.829,0,0,0,2.276-7.358c.006-.8,0-1.6,0-2.4a2.081,2.081,0,1,1,4.154.016C166.085,250.757,166.085,251.45,166.085,252.418Z" transform="translate(-94.795 -85.218)" fill="#e8fcff"/>
      <path id="Tracé_2130" data-name="Tracé 2130" d="M58.952,86.7l-.012-.73a15.894,15.894,0,0,1,4.277-9.831,16.141,16.141,0,0,1,14.094-5.063c.48.066.716.325.685.72s-.32.629-.794.587a19.251,19.251,0,0,0-2.992-.093,14.544,14.544,0,0,0-7.326,2.453A14.905,14.905,0,0,0,60.24,86.211c0,.053,0,.106-.009.16a.694.694,0,0,1-.526.714A.638.638,0,0,1,58.952,86.7Z" transform="translate(-5.907 77.545)" fill="#e8fcff"/>
      <path id="Tracé_2131" data-name="Tracé 2131" d="M257.362,120.178a12.265,12.265,0,0,0-1.349-6.078,12,12,0,0,0-6.271-5.7,11.874,11.874,0,0,0-4.883-.855,1.78,1.78,0,0,1-.4-.014.615.615,0,0,1-.542-.6.6.6,0,0,1,.5-.669,2.04,2.04,0,0,1,.394-.05,13.448,13.448,0,0,1,13.042,8.8,13.9,13.9,0,0,1,.826,4.732c0,.881,0,1.761,0,2.642a.726.726,0,0,1-.381.732.656.656,0,0,1-.934-.64C257.35,121.793,257.362,121.111,257.362,120.178Z" transform="translate(-176.074 45.094)" fill="#e8fcff"/>
      <path id="Tracé_2132" data-name="Tracé 2132" d="M204.825,35.832a18.8,18.8,0,0,1,13.512,5.653,2.3,2.3,0,0,1,.193.2.654.654,0,0,1-.926.921c-.155-.125-.291-.275-.434-.414a17.458,17.458,0,0,0-10.158-4.919,17.967,17.967,0,0,0-6.154.29c-.6.13-1-.135-.968-.649.024-.408.306-.567.654-.64a18.511,18.511,0,0,1,3.362-.442C204.212,35.826,204.518,35.832,204.825,35.832Z" transform="translate(-135.572 109.829)" fill="#e8fcff"/>
      <path id="Tracé_2133" data-name="Tracé 2133" d="M77.2,171.363a.659.659,0,0,1-.567-.356.646.646,0,0,1,.087-.745c.219-.268.45-.528.692-.774a1.706,1.706,0,0,0,.495-1.262c0-1.092-.025-2.185.042-3.277a13.288,13.288,0,0,1,3.566-8.334.665.665,0,0,1,.961-.1.676.676,0,0,1,.01,1,12.848,12.848,0,0,0-2.109,3.131,12.243,12.243,0,0,0-1.14,5.219c0,.773-.01,1.546,0,2.322a3,3,0,0,1-.8,2.149c-.225.245-.445.495-.669.741A.828.828,0,0,1,77.2,171.363Z" transform="translate(-22.107 -1.046)" fill="#e8fcff"/>
      <path id="Tracé_2134" data-name="Tracé 2134" d="M340.062,183.828a27.227,27.227,0,0,1-.22,3.881c-.069.525-.343.816-.725.778-.415-.04-.647-.361-.579-.921a49.4,49.4,0,0,0,.2-5.79A9.455,9.455,0,0,0,337.6,177.1a9.345,9.345,0,0,0-1.406-1.932c-.165-.174-.344-.335-.506-.512a.659.659,0,1,1,.922-.938,10.606,10.606,0,0,1,3.456,8.081C340.055,182.412,340.062,183.025,340.062,183.828Z" transform="translate(-260.286 -16.819)" fill="#e8fcff"/>
      <path id="Tracé_2135" data-name="Tracé 2135" d="M129,153.135a10.583,10.583,0,0,1,7.833-9.783c.32-.088.648-.145.974-.211.538-.111.9.07.971.486s-.171.728-.72.818A8.881,8.881,0,0,0,134,146.193a9.071,9.071,0,0,0-3.653,6.777c-.016.226-.026.453-.058.676a.645.645,0,0,1-1.281-.032A4.564,4.564,0,0,1,129,153.135Z" transform="translate(-70.357 11.138)" fill="#e8fcff"/>
      <path id="Tracé_2136" data-name="Tracé 2136" d="M72.325,60.007a.6.6,0,0,1-.572-.369.686.686,0,0,1,.118-.747,19.223,19.223,0,0,1,1.6-1.787A19.464,19.464,0,0,1,79.4,53.125a.736.736,0,0,1,.827.045.669.669,0,0,1-.25,1.15A22.634,22.634,0,0,0,77.5,55.61a17.988,17.988,0,0,0-4.471,3.95C72.741,59.923,72.594,60.012,72.325,60.007Z" transform="translate(-17.635 94.015)" fill="#e8fcff"/>
      <path id="Tracé_2137" data-name="Tracé 2137" d="M400.506,139.926v.42a.614.614,0,0,1-.658.463.681.681,0,0,1-.623-.536,14.376,14.376,0,0,0-2.012-3.87c-.32-.439-.68-.852-1.024-1.274-.331-.406-.336-.781-.009-1.05.312-.256.668-.2,1.008.182A15.9,15.9,0,0,1,400.506,139.926Z" transform="translate(-315.927 19.588)" fill="#e8fcff"/>
      <path id="Tracé_2138" data-name="Tracé 2138" d="M96.505,299.256a5.339,5.339,0,0,1-1.211,3.189c-.576.7-1.194,1.361-1.8,2.033a.675.675,0,0,1-.987.138.663.663,0,0,1,.006-1.023c.544-.621,1.11-1.224,1.647-1.852a4.031,4.031,0,0,0,1.016-2.584c.01-.544.316-.881.736-.853S96.523,298.638,96.505,299.256Z" transform="translate(-36.564 -131.63)" fill="#e8fcff"/>
      <path id="Tracé_2139" data-name="Tracé 2139" d="M316.3,81.26a5.549,5.549,0,0,1,1.053.368,16.179,16.179,0,0,1,3.508,1.951.685.685,0,0,1,.32.756.637.637,0,0,1-.487.475.54.54,0,0,1-.494-.08,17.552,17.552,0,0,0-4.176-2.213.6.6,0,0,1-.364-.754A.645.645,0,0,1,316.3,81.26Z" transform="translate(-242.051 68.036)" fill="#e8fcff"/>
      <path id="Tracé_2140" data-name="Tracé 2140" d="M162.726,115.512a.649.649,0,0,1-.64-.453.633.633,0,0,1,.276-.763,12.506,12.506,0,0,1,1.86-1.082,12.674,12.674,0,0,1,2.013-.759.679.679,0,0,1,.9.415.664.664,0,0,1-.49.833,13.4,13.4,0,0,0-3.553,1.688A.584.584,0,0,1,162.726,115.512Z" transform="translate(-100.761 39.374)" fill="#e8fcff"/>
      <path id="Tracé_2141" data-name="Tracé 2141" d="M357.117,381.046c-.054.181-.14.444-.21.712a20.942,20.942,0,0,1-.737,2.178.659.659,0,1,1-1.244-.426q.485-1.346.892-2.717a.642.642,0,0,1,.74-.517A.7.7,0,0,1,357.117,381.046Z" transform="translate(-278.156 -207.034)" fill="#e8fcff"/>
      <path id="Tracé_2142" data-name="Tracé 2142" d="M274.611,144.491a.647.647,0,0,1-.961.612,11.462,11.462,0,0,0-2.117-.686c-.183-.036-.368-.061-.546-.113a.635.635,0,0,1-.495-.752.612.612,0,0,1,.688-.526,9.042,9.042,0,0,1,3.108.94A.56.56,0,0,1,274.611,144.491Z" transform="translate(-200.513 11.219)" fill="#e8fcff"/>
      <path id="Tracé_2143" data-name="Tracé 2143" d="M353.035,21.085c-.71-.408-1.627-.67-2.407-1.2a.536.536,0,0,1-.08-.732.587.587,0,0,1,.746-.311,12.792,12.792,0,0,1,2.269,1.058.575.575,0,0,1,.24.733C353.7,20.937,353.484,21.076,353.035,21.085Z" transform="translate(-274.075 125.493)" fill="#e8fcff"/>
    </g>
  </g>
</svg>
