<svg xmlns="http://www.w3.org/2000/svg" width="40.832" height="23.668" viewBox="0 0 40.832 23.668">
  <g id="Groupe_634" data-name="Groupe 634" transform="translate(-823.76 -803.19)">
    <path id="Tracé_2263" data-name="Tracé 2263" d="M171.882,406.065,159.7,402.316v6.262c0,2.895,5.455,5.242,12.184,5.242s12.185-2.347,12.185-5.242c0-.023-.007-.046-.008-.068v-6.194Z" transform="translate(672.295 413.038)" fill="#494949"/>
    <path id="Tracé_2264" data-name="Tracé 2264" d="M0,174.276l4.352,1.557.371-.794,1.6-.136.228.237-1.372.325-.2.592s-3.1,6.477-2.644,9.646a4,4,0,0,0,3.867,0l.514-8.664v-.721l2.878-.649-.2.5-2.145.7.992.354,12.181,3.749L32.6,177.222l8.235-2.945-20.416-7.855Z" transform="translate(823.76 636.768)" fill="#494949"/>
  </g>
</svg>
