<svg xmlns="http://www.w3.org/2000/svg" width="49.976" height="50.77" viewBox="0 0 49.976 50.77">
  <g id="Groupe_656" data-name="Groupe 656" transform="translate(-43.024 -197)">
    <path id="Tracé_2266" data-name="Tracé 2266" d="M24.988,0A25.189,25.189,0,0,1,49.976,25.385,25.189,25.189,0,0,1,24.988,50.77,25.189,25.189,0,0,1,0,25.385,25.189,25.189,0,0,1,24.988,0Z" transform="translate(43.024 197)" fill="#494949"/>
    <path id="Tracé_2267" data-name="Tracé 2267" d="M11.127,12.07V0H0V9.618c0,5.092.566,8.864,1.886,11.315a15.606,15.606,0,0,0,7.732,6.978l2.64-4.149A9.906,9.906,0,0,1,7.544,19.8c-1.132-1.7-1.7-4.338-1.7-7.732Zm18.1,0V0H18.1V9.618c0,5.28.566,8.864,1.886,11.315a15.606,15.606,0,0,0,7.732,6.978l2.452-4.149a9.906,9.906,0,0,1-4.715-3.96,18.811,18.811,0,0,1-1.7-7.732Z" transform="matrix(1, 0.017, -0.017, 1, 54.199, 208.63)" fill="#e8fcff"/>
  </g>
</svg>
