<svg xmlns="http://www.w3.org/2000/svg" width="17.467" height="16.059" viewBox="0 0 17.467 16.059">
  <path id="Tracé_896" data-name="Tracé 896" d="M346.924,60.124l1.291-3.47,1.291,3.47Zm1.291-5.649a1.367,1.367,0,0,0-1.13.726L344.1,63.11a.785.785,0,0,0,.726,1.049.775.775,0,0,0,.726-.484l.726-1.937h3.874l.726,1.937a.706.706,0,0,0,.726.484.824.824,0,0,0,.726-1.049L349.345,55.2A1.366,1.366,0,0,0,348.215,54.475Zm-3.874,4.6c.081-.323.081-.646-.161-.807l-1.695-1.695h0a14.26,14.26,0,0,0,2.986-5.245H347a.868.868,0,0,0,.807-.807h0a.868.868,0,0,0-.807-.807h-4.842v-.807a.807.807,0,0,0-1.614,0v.807h-4.842a.868.868,0,0,0-.807.807.809.809,0,0,0,.807.807h8.231a12.724,12.724,0,0,1-2.582,4.358,15.668,15.668,0,0,1-1.695-2.34.823.823,0,0,0-.646-.4.731.731,0,0,0-.646,1.049,13.874,13.874,0,0,0,1.856,2.582l-3.551,3.47a.8.8,0,0,0,1.13,1.13l3.47-3.47,1.614,1.614A.96.96,0,0,0,344.342,59.075Z" transform="translate(-334.9 -48.1)"/>
</svg>
