<svg xmlns="http://www.w3.org/2000/svg" width="49" height="50" viewBox="0 0 49 50">
  <g id="Groupe_668" data-name="Groupe 668" transform="translate(-44 -488)">
    <ellipse id="Ellipse_100" data-name="Ellipse 100" cx="24.5" cy="25" rx="24.5" ry="25" transform="translate(44 488)" fill="#259037"/>
    <path id="Tracé_2103" data-name="Tracé 2103" d="M171.882,406.065,159.7,402.316v6.262c0,2.895,5.455,5.242,12.184,5.242s12.185-2.347,12.185-5.242c0-.023-.007-.046-.008-.068v-6.194Z" transform="translate(-102.705 111.038)" fill="#e8fcff"/>
    <path id="Tracé_2104" data-name="Tracé 2104" d="M0,174.276l4.352,1.557.371-.794,1.6-.136.228.237-1.372.325-.2.592s-3.1,6.477-2.644,9.646a4,4,0,0,0,3.867,0l.514-8.664v-.721l2.878-.649-.2.5-2.145.7.992.354,12.181,3.749L32.6,177.222l8.235-2.945-20.416-7.855Z" transform="translate(48.76 334.767)" fill="#e8fcff"/>
  </g>
</svg>
