<svg xmlns="http://www.w3.org/2000/svg" width="176.543" height="176.543" viewBox="0 0 176.543 176.543">
  <g id="Groupe_663" data-name="Groupe 663" transform="translate(356.569 -303.495)">
    <g id="Groupe_9" data-name="Groupe 9" transform="translate(-529.594 56)">
      <g id="Groupe_5" data-name="Groupe 5" transform="translate(173.025 340.454)">
        <path id="Tracé_32" data-name="Tracé 32" d="M212.487,489.847A72.009,72.009,0,0,0,277.4,554.759V539.986a56.921,56.921,0,0,1-19.13-5.78L274,529.99l6.724-25.1-18.373-18.372-25.1,6.723-4.215,15.733a56.927,56.927,0,0,1-5.78-19.132Z" transform="translate(-197.14 -486.522)" fill="rgba(83,83,83,0.11)"/>
        <path id="Tracé_33" data-name="Tracé 33" d="M206.57,606.145a19.65,19.65,0,1,0,0,27.788A19.649,19.649,0,0,0,206.57,606.145Z" transform="translate(-173.026 -556.106)" fill="rgba(83,83,83,0.11)"/>
      </g>
      <g id="Groupe_6" data-name="Groupe 6" transform="translate(265.985 340.454)">
        <path id="Tracé_34" data-name="Tracé 34" d="M531.677,633.935a19.65,19.65,0,1,0,0-27.789A19.65,19.65,0,0,0,531.677,633.935Z" transform="translate(-481.638 -556.107)" fill="rgba(83,83,83,0.11)"/>
        <path id="Tracé_35" data-name="Tracé 35" d="M418.779,529.991l14.085,3.774a56.9,56.9,0,0,1-19.982,6.221V554.76a72.007,72.007,0,0,0,64.91-64.912H463.019a56.891,56.891,0,0,1-4.193,15.731l-3.3-12.333-25.1-6.723-18.371,18.372Z" transform="translate(-412.054 -486.523)" fill="rgba(83,83,83,0.11)"/>
      </g>
      <g id="Groupe_7" data-name="Groupe 7" transform="translate(265.984 247.495)">
        <path id="Tracé_36" data-name="Tracé 36" d="M412.881,293.381v14.773a56.946,56.946,0,0,1,16.679,4.608l-10.783,2.89-6.724,25.1,18.372,18.372,25.1-6.725,2.89-10.783a56.954,56.954,0,0,1,4.607,16.68h14.773A72.006,72.006,0,0,0,412.881,293.381Z" transform="translate(-412.053 -275.536)" fill="rgba(83,83,83,0.11)"/>
        <path id="Tracé_37" data-name="Tracé 37" d="M531.677,281.039a19.649,19.649,0,1,0,0-27.79A19.649,19.649,0,0,0,531.677,281.039Z" transform="translate(-481.637 -247.495)" fill="rgba(83,83,83,0.11)"/>
      </g>
      <g id="Groupe_8" data-name="Groupe 8" transform="translate(173.026 247.495)">
        <path id="Tracé_38" data-name="Tracé 38" d="M227.261,358.29a56.931,56.931,0,0,1,6.221-19.982l3.775,14.086,25.1,6.725,18.372-18.372L274,315.65l-12.333-3.3a56.9,56.9,0,0,1,15.73-4.193V293.38a72.008,72.008,0,0,0-64.911,64.911Z" transform="translate(-197.141 -275.535)" fill="rgba(83,83,83,0.11)"/>
        <path id="Tracé_39" data-name="Tracé 39" d="M178.781,281.04a19.65,19.65,0,1,0,0-27.79A19.651,19.651,0,0,0,178.781,281.04Z" transform="translate(-173.026 -247.495)" fill="rgba(83,83,83,0.11)"/>
      </g>
    </g>
  </g>
</svg>
