<svg id="gear" xmlns="http://www.w3.org/2000/svg" width="28.459" height="29.416" viewBox="0 0 28.459 29.416">
  <g id="Groupe_495" data-name="Groupe 495" transform="translate(0)">
    <path id="Tracé_2147" data-name="Tracé 2147" d="M36.568,18.845l-3.1-2.591a10.238,10.238,0,0,0,0-3.091l3.1-2.591a.612.612,0,0,0,.138-.776L33.887,4.913a.614.614,0,0,0-.741-.269L29.36,6.027a10.988,10.988,0,0,0-2.682-1.542l-.7-3.978a.613.613,0,0,0-.6-.507H19.74a.613.613,0,0,0-.6.507l-.7,3.978a10.988,10.988,0,0,0-2.682,1.542L11.971,4.644a.611.611,0,0,0-.741.269L8.411,9.8a.612.612,0,0,0,.138.776l3.1,2.591a10.238,10.238,0,0,0,0,3.091l-3.1,2.591a.612.612,0,0,0-.138.776L11.23,24.5a.614.614,0,0,0,.741.269l3.787-1.384a10.988,10.988,0,0,0,2.682,1.542l.7,3.978a.613.613,0,0,0,.6.507h5.638a.613.613,0,0,0,.6-.507l.7-3.978a10.988,10.988,0,0,0,2.682-1.542l3.787,1.384a.616.616,0,0,0,.741-.269l2.819-4.882A.612.612,0,0,0,36.568,18.845Zm-14.01,1.992a6.128,6.128,0,1,1,6.128-6.128A6.136,6.136,0,0,1,22.559,20.837Z" transform="translate(-8.329)" fill="#535353"/>
  </g>
</svg>
