<svg id="wrench-and-hammer-cross" xmlns="http://www.w3.org/2000/svg" width="34.281" height="33.124" viewBox="0 0 34.281 33.124">
  <path id="Tracé_2155" data-name="Tracé 2155" d="M11.558,20.182l3.989,3.989L7.66,32.059,3.671,28.069Zm8.774-8.776L18.15,13.588l3.989,3.989L24.322,15.4Zm5.891-9.915H21.965l-2.6,2.624V8.374l7.991,8.037h4.257l2.67-2.647V9.505Zm-2.471,20.1L12.96,10.8a6.658,6.658,0,0,0-.928-5.84A5.935,5.935,0,0,0,5.8,2.214L8.966,6.693,7.514,10.07l-3.668.238L.637,5.764a7.111,7.111,0,0,0,.53,6.864,6.68,6.68,0,0,0,7.957,2.311L19.567,25.381a6.654,6.654,0,0,0,6.786,9.2l-3.1-4.522,1.5-3.357,3.672-.186,3.146,4.587a6.657,6.657,0,0,0-7.815-9.517Z" transform="translate(0 -1.492)" fill="#e8fcff"/>
</svg>
