<svg xmlns="http://www.w3.org/2000/svg" width="21.554" height="29.464" viewBox="0 0 21.554 29.464">
  <g id="Groupe_553" data-name="Groupe 553" transform="translate(-1223.237 -293.852)">
    <path id="Tracé_2211" data-name="Tracé 2211" d="M311.455,12.22V9.208h7.193a.863.863,0,0,0,.733-1.319l-1.507-2.421,1.507-2.421a.863.863,0,0,0-.733-1.319h-7.193V.863a.863.863,0,0,0-1.726,0V12.22A1.113,1.113,0,0,1,311.455,12.22Z" transform="translate(923.422 293.852)" fill="#535353"/>
    <path id="Tracé_2210" data-name="Tracé 2210" d="M152.968,349.174l-2.061,1.92a.863.863,0,0,1-1.177,0l-1.495-1.392-1.494,1.392a.863.863,0,0,1-1.177,0l-2.06-1.92-5.94,8.464a.575.575,0,0,0,.471.906h20.4a.575.575,0,0,0,.471-.906Z" transform="translate(1085.778 -35.228)" fill="#535353"/>
    <path id="Tracé_2212" data-name="Tracé 2212" d="M261.3,245.835l1.494-1.392a.863.863,0,0,1,1.177,0l1.495,1.392,1.663-1.514-3.275-4.666a.576.576,0,0,0-.942,0l-3.275,4.666Z" transform="translate(970.626 68.219)" fill="#535353"/>
  </g>
</svg>
