<svg xmlns="http://www.w3.org/2000/svg" width="139.979" height="139.979" viewBox="0 0 139.979 139.979">
  <g id="cityscape" transform="translate(0 0.001)" opacity="0.111">
    <path id="Tracé_2241" data-name="Tracé 2241" d="M90.81,195.515v44.8h9.7V164.769a4.1,4.1,0,0,0-4.1-4.1H69.429a4.1,4.1,0,0,0-4.1,4.1v18.444H78.507A12.316,12.316,0,0,1,90.81,195.515Zm0,0" transform="translate(-47.468 -116.742)" fill="#535353"/>
    <path id="Tracé_2242" data-name="Tracé 2242" d="M58.485,277.23a4.1,4.1,0,0,0-4.1-4.1H36.23a4.1,4.1,0,0,0-4.1,4.1v44.8H58.485Zm0,0" transform="translate(-23.345 -198.457)" fill="#535353"/>
    <path id="Tracé_2243" data-name="Tracé 2243" d="M454.971,245.1a4.1,4.1,0,0,0-4.1-4.1H445.6v57.687h9.369Zm0,0" transform="translate(-323.775 -175.112)" fill="#535353"/>
    <path id="Tracé_2244" data-name="Tracé 2244" d="M314.68,131.248V145.3h4.977a12.252,12.252,0,0,1,4.1.7V113.678a4.1,4.1,0,0,0-1.2-2.9L309.378,97.6a4.1,4.1,0,0,0-5.8,0L290.4,110.777a4.1,4.1,0,0,0-1.2,2.9v5.267h13.178A12.316,12.316,0,0,1,314.68,131.248Zm0,0" transform="translate(-210.133 -70.044)" fill="#535353"/>
    <path id="Tracé_2245" data-name="Tracé 2245" d="M323.757,309.37a4.1,4.1,0,0,0-4.1-4.1H293.3a4.1,4.1,0,0,0-4.1,4.1v36.015h34.558Zm0,0" transform="translate(-210.133 -221.81)" fill="#535353"/>
    <path id="Tracé_2246" data-name="Tracé 2246" d="M154.636,48.026v1.553a12.251,12.251,0,0,1,4.02-.677h4.433V4.1A4.1,4.1,0,0,0,157.155.432L130.8,13.61a4.1,4.1,0,0,0-2.267,3.668V35.723h13.8A12.317,12.317,0,0,1,154.636,48.026Zm0,0" transform="translate(-93.391)" fill="#535353"/>
    <path id="Tracé_2247" data-name="Tracé 2247" d="M258.9,227.024V212.972a4.1,4.1,0,0,0-4.1-4.1H227.82a4.1,4.1,0,0,0-4.1,4.1v62.37h9.7V239.327a12.316,12.316,0,0,1,12.3-12.3Zm0,0" transform="translate(-162.555 -151.767)" fill="#535353"/>
    <path id="Tracé_2248" data-name="Tracé 2248" d="M135.878,482H4.1a4.1,4.1,0,1,0,0,8.2H135.878a4.1,4.1,0,1,0,0-8.2Zm0,0" transform="translate(0 -350.223)" fill="#535353"/>
  </g>
</svg>
