<svg xmlns="http://www.w3.org/2000/svg" width="163.024" height="166.281" viewBox="0 0 163.024 166.281">
  <g id="project-management" transform="translate(-4.56 0.005)" opacity="0.111">
    <g id="Groupe_593" data-name="Groupe 593" transform="translate(129.094 83.262)">
      <g id="Groupe_592" data-name="Groupe 592">
        <path id="Tracé_2253" data-name="Tracé 2253" d="M360.4,234.488a2.855,2.855,0,0,0-5.11,1.31l-1.584,11.1a2.784,2.784,0,0,1-.148.417,51.318,51.318,0,0,0,6.98-12.649Z" transform="translate(-353.559 -233.346)" fill="#535353"/>
      </g>
    </g>
    <g id="Groupe_595" data-name="Groupe 595" transform="translate(36.627 15.026)">
      <g id="Groupe_594" data-name="Groupe 594">
        <path id="Tracé_2254" data-name="Tracé 2254" d="M184.213,126.362a3.164,3.164,0,0,1-.4-.026l-16.957-2.424a2.854,2.854,0,0,1-2.421-3.231h0l1.584-11.1a2.855,2.855,0,0,0-4.536-2.686l-8.975,6.728a2.855,2.855,0,0,1-4-.571h0l-10.277-13.7a2.855,2.855,0,0,1,.571-4l8.972-6.728a2.855,2.855,0,0,0-1.31-5.11l-11.1-1.587a2.854,2.854,0,0,1-2.424-3.228s0,0,0,0l2.424-16.954a2.854,2.854,0,0,1,3.228-2.424h0L149.7,60.9a2.838,2.838,0,0,0,2.855-1.373,2.8,2.8,0,0,0-.171-3.169l-6.723-8.969a2.855,2.855,0,0,1,.571-4l1.619-1.213a52.345,52.345,0,0,0-7.862.211,51.384,51.384,0,0,0-21.872,94.329,16.368,16.368,0,0,1,7.742,13.711v11.536a8.564,8.564,0,0,0,8.564,8.564h22.837a8.564,8.564,0,0,0,8.564-8.564v-11.3a16.817,16.817,0,0,1,7.907-14.051,51.728,51.728,0,0,0,11.913-10.676A2.851,2.851,0,0,1,184.213,126.362Zm-35.521,35.606h-5.709V153.4h5.709Zm-5.709-14.273a18.225,18.225,0,0,0-11.7-17.014,39.965,39.965,0,0,1-6.74-71.041l3.029,4.83a34.256,34.256,0,0,0,5.772,60.9,23.885,23.885,0,0,1,15.352,22.326Z" transform="translate(-94.426 -42.12)" fill="#535353"/>
      </g>
    </g>
    <g id="Groupe_597" data-name="Groupe 597" transform="translate(76.62 157.712)">
      <g id="Groupe_596" data-name="Groupe 596">
        <path id="Tracé_2255" data-name="Tracé 2255" d="M206.5,441.987v2.855a5.709,5.709,0,0,0,5.709,5.709h11.419a5.709,5.709,0,0,0,5.709-5.709v-2.855Z" transform="translate(-206.503 -441.987)" fill="#535353"/>
      </g>
    </g>
    <g id="Groupe_599" data-name="Groupe 599" transform="translate(7.355 73.956)">
      <g id="Groupe_598" data-name="Groupe 598" transform="translate(0)">
        <path id="Tracé_2256" data-name="Tracé 2256" d="M63.809,245.348a54.026,54.026,0,0,1-4.879-3.565,17.093,17.093,0,1,1-17.262-24.836,54.363,54.363,0,0,1-2.261-9.68l-.5,2.375a5.709,5.709,0,0,1-8.824,3.528l-5.938-4.076-5.2,5.19,4.088,5.943a5.709,5.709,0,0,1-3.526,8.827l-7.117,1.5v6.783l7.117,1.5a5.709,5.709,0,0,1,3.523,8.829l-4.085,5.912,5.2,5.19,5.932-4.088a5.709,5.709,0,0,1,8.827,3.526l1.5,7.128h6.786l1.5-7.117a5.71,5.71,0,0,1,8.827-3.525l5.929,4.076,6.123-6.123A13.934,13.934,0,0,0,63.809,245.348Z" transform="translate(-12.391 -207.267)" fill="#535353"/>
      </g>
    </g>
    <g id="Groupe_601" data-name="Groupe 601" transform="translate(76.62 146.293)">
      <g id="Groupe_600" data-name="Groupe 600">
        <rect id="Rectangle_2634" data-name="Rectangle 2634" width="22.837" height="5.709" fill="#535353"/>
      </g>
    </g>
    <g id="Groupe_603" data-name="Groupe 603" transform="translate(81.188 6.8)">
      <g id="Groupe_602" data-name="Groupe 602">
        <path id="Tracé_2257" data-name="Tracé 2257" d="M297.432,61.476a8.564,8.564,0,0,1-3.925-15.33l6.688-5.018-6.851-9.135-6.688,5.016a8.564,8.564,0,0,1-13.62-8.05l1.182-8.279-11.3-1.613-1.182,8.279a8.564,8.564,0,0,1-15.33,3.925l-5.018-6.7-9.135,6.851,5.016,6.688A8.564,8.564,0,0,1,229.2,51.727l-8.279-1.182L219.3,61.85l8.279,1.182a8.564,8.564,0,0,1,3.925,15.33l-6.686,5.018,6.851,9.135,6.688-5.016a8.564,8.564,0,0,1,13.617,8.064l-1.182,8.279,11.327,1.621,1.182-8.279a8.564,8.564,0,0,1,15.33-3.925l5.018,6.686,9.135-6.851-5.033-6.7a8.564,8.564,0,0,1,8.053-13.617l8.279,1.182,1.613-11.3ZM262.511,79.383a17.128,17.128,0,1,1,17.128-17.128A17.128,17.128,0,0,1,262.511,79.383Z" transform="translate(-219.303 -19.067)" fill="#535353"/>
      </g>
    </g>
    <g id="Groupe_605" data-name="Groupe 605" transform="translate(142.277 106.328)">
      <g id="Groupe_604" data-name="Groupe 604">
        <rect id="Rectangle_2635" data-name="Rectangle 2635" width="19.983" height="5.709" fill="#535353"/>
      </g>
    </g>
    <g id="Groupe_607" data-name="Groupe 607" transform="translate(137.596 121.261)">
      <g id="Groupe_606" data-name="Groupe 606" transform="translate(0 0)">
        <rect id="Rectangle_2636" data-name="Rectangle 2636" width="5.709" height="22.295" transform="matrix(0.64, -0.768, 0.768, 0.64, 0, 4.386)" fill="#535353"/>
      </g>
    </g>
    <g id="Groupe_609" data-name="Groupe 609" transform="translate(125.149 129.165)">
      <g id="Groupe_608" data-name="Groupe 608">
        <rect id="Rectangle_2637" data-name="Rectangle 2637" width="5.709" height="19.983" fill="#535353"/>
      </g>
    </g>
    <g id="Groupe_611" data-name="Groupe 611" transform="translate(4.56 43.61)">
      <g id="Groupe_610" data-name="Groupe 610" transform="translate(0 0)">
        <rect id="Rectangle_2638" data-name="Rectangle 2638" width="23.54" height="5.706" transform="translate(0 5.708) rotate(-14.035)" fill="#535353"/>
      </g>
    </g>
    <g id="Groupe_613" data-name="Groupe 613" transform="translate(9.302 15.514)">
      <g id="Groupe_612" data-name="Groupe 612" transform="translate(0 0)">
        <rect id="Rectangle_2639" data-name="Rectangle 2639" width="5.706" height="24.556" transform="matrix(0.581, -0.814, 0.814, 0.581, 0, 4.643)" fill="#535353"/>
      </g>
    </g>
    <g id="Groupe_615" data-name="Groupe 615" transform="translate(33.761 -0.005)">
      <g id="Groupe_614" data-name="Groupe 614" transform="translate(0 0)">
        <rect id="Rectangle_2640" data-name="Rectangle 2640" width="5.709" height="23.571" transform="matrix(0.969, -0.248, 0.248, 0.969, 0, 1.414)" fill="#535353"/>
      </g>
    </g>
  </g>
</svg>
