<svg xmlns="http://www.w3.org/2000/svg" width="49" height="49" viewBox="0 0 49 49">
  <g id="Groupe_669" data-name="Groupe 669" transform="translate(-44 -547)">
    <circle id="Ellipse_98" data-name="Ellipse 98" cx="24.5" cy="24.5" r="24.5" transform="translate(44 547)" fill="#dd5e8e"/>
    <path id="Tracé_2144" data-name="Tracé 2144" d="M255.891,72.985a2.8,2.8,0,0,1-3.787,0l-.14-.14c-7.294-6.733-12.2-11.081-12.063-16.411a7.919,7.919,0,0,1,3.226-6.032,8.161,8.161,0,0,1,10.8,1.543,8.136,8.136,0,0,1,10.8-1.543,7.517,7.517,0,0,1,3.226,6.032c.14,5.47-4.629,9.819-12.063,16.552Z" transform="translate(-185.552 511.638)" fill="#e8fcff"/>
  </g>
</svg>
