<svg xmlns="http://www.w3.org/2000/svg" width="76.886" height="71.12" viewBox="0 0 76.886 71.12">
  <path id="Tracé_2169" data-name="Tracé 2169" d="M28.352,40.365V71.12H0V46.612C0,33.638,1.442,24.027,4.805,17.78A39.765,39.765,0,0,1,24.507,0l6.728,10.572c-5.286,2.4-9.611,5.766-12.013,10.091-2.883,4.325-4.325,11.052-4.325,19.7Zm46.132,0V71.12H46.132V46.612c0-13.455,1.442-22.585,4.805-28.832A39.765,39.765,0,0,1,70.639,0l6.247,10.572c-5.286,2.4-9.611,5.766-12.013,10.091s-3.844,11.052-4.325,19.7Z" fill="rgba(83,83,83,0.07)"/>
</svg>
