<?xml version="1.0" encoding="UTF-8" standalone="no"?>
<svg
   xmlns:dc="http://purl.org/dc/elements/1.1/"
   xmlns:cc="http://creativecommons.org/ns#"
   xmlns:rdf="http://www.w3.org/1999/02/22-rdf-syntax-ns#"
   xmlns:svg="http://www.w3.org/2000/svg"
   xmlns="http://www.w3.org/2000/svg"
   xmlns:sodipodi="http://sodipodi.sourceforge.net/DTD/sodipodi-0.dtd"
   xmlns:inkscape="http://www.inkscape.org/namespaces/inkscape"
   width="210mm"
   height="297mm"
   viewBox="0 0 210 297"
   version="1.1"
   id="svg21293"
   inkscape:version="1.0beta2 (2b71d25, 2019-12-03)"
   sodipodi:docname="train.svg">
  <defs
     id="defs21287">
    <linearGradient
       id="linearGradient16801"
       spreadMethod="pad"
       gradientTransform="matrix(308.21741,0,0,-308.21741,4508.3359,42.758633)"
       gradientUnits="userSpaceOnUse"
       y2="0"
       x2="1"
       y1="0"
       x1="0">
      <stop
         id="stop16795"
         offset="0"
         style="stop-opacity:1;stop-color:#5f78e0" />
      <stop
         id="stop16797"
         offset="0.526667"
         style="stop-opacity:1;stop-color:#7891ce" />
      <stop
         id="stop16799"
         offset="1"
         style="stop-opacity:1;stop-color:#7891ce" />
    </linearGradient>
  </defs>
  <sodipodi:namedview
     id="base"
     pagecolor="#ffffff"
     bordercolor="#666666"
     borderopacity="1.0"
     inkscape:pageopacity="0.0"
     inkscape:pageshadow="2"
     inkscape:zoom="2.02"
     inkscape:cx="185.64042"
     inkscape:cy="84.467756"
     inkscape:document-units="mm"
     inkscape:current-layer="layer1"
     inkscape:document-rotation="0"
     showgrid="false"
     inkscape:window-width="1600"
     inkscape:window-height="880"
     inkscape:window-x="0"
     inkscape:window-y="23"
     inkscape:window-maximized="0" />
  <metadata
     id="metadata21290">
    <rdf:RDF>
      <cc:Work
         rdf:about="">
        <dc:format>image/svg+xml</dc:format>
        <dc:type
           rdf:resource="http://purl.org/dc/dcmitype/StillImage" />
        <dc:title />
      </cc:Work>
    </rdf:RDF>
  </metadata>
  <g
     inkscape:label="Calque 1"
     inkscape:groupmode="layer"
     id="layer1">
    <g
       transform="matrix(0.35277777,0,0,-0.35277777,-1575.1293,20.937384)"
       id="g21223">
      <g
         id="g21190">
        <g
           transform="translate(4506.4062,56.418)"
           id="g16733">
          <path
             inkscape:connector-curvature="0"
             id="path16735"
             style="fill:#ffffff;fill-opacity:1;fill-rule:nonzero;stroke:none"
             d="m 0,0 -3.24,2.415 c 0,0 -16.116,0.645 -25.65,-7.508 -12.424,-10.625 -11.898,-19.142 -11.898,-19.142 l 38.323,-3.412 z" />
        </g>
        <g
           transform="translate(4465.6182,32.1826)"
           id="g16737">
          <path
             inkscape:connector-curvature="0"
             id="path16739"
             style="fill:#ffffff;fill-opacity:1;fill-rule:nonzero;stroke:none"
             d="m 0,0 c 0,2.425 1.966,4.391 4.391,4.391 2.424,0 4.39,-1.966 4.39,-4.391 0,-2.425 -1.966,-4.391 -4.39,-4.391 C 1.966,-4.391 0,-2.425 0,0" />
        </g>
        <g
           transform="translate(4469.7012,29.46)"
           id="g16741">
          <path
             inkscape:connector-curvature="0"
             id="path16743"
             style="fill:#ffffff;fill-opacity:1;fill-rule:nonzero;stroke:none"
             d="m 0,0 0.308,-1.668 33.675,0.219 0.351,4.61 -29.109,3.425 z" />
        </g>
        <g
           transform="translate(4492.7393,54.0107)"
           id="g16745">
          <path
             inkscape:connector-curvature="0"
             id="path16747"
             style="fill:#b3b7b7;fill-opacity:1;fill-rule:nonzero;stroke:none"
             d="m 0,0 c 0,0 -6.529,0.037 -11.008,-3.739 -6.06,-5.111 -10.076,-9.221 -11.459,-12.975 -1.384,-3.754 4.479,-7.441 8.034,-3.095 3.557,4.347 5.204,8.333 10.669,8.87 C 1.703,-10.402 7.706,0.211 0,0" />
        </g>
        <path
           inkscape:connector-curvature="0"
           id="path16749"
           style="fill:#ffffff;fill-opacity:1;fill-rule:nonzero;stroke:none"
           d="M 4814.876,28.011 H 4501.75 v 30.822 h 313.126 z" />
        <g
           transform="translate(4811.6357,56.418)"
           id="g16751">
          <path
             inkscape:connector-curvature="0"
             id="path16753"
             style="fill:#ffffff;fill-opacity:1;fill-rule:nonzero;stroke:none"
             d="m 0,0 3.24,2.415 c 0,0 16.116,0.645 25.65,-7.508 12.425,-10.625 11.898,-19.142 11.898,-19.142 L 2.465,-27.647 Z" />
        </g>
        <g
           transform="translate(4852.4238,32.1826)"
           id="g16755">
          <path
             inkscape:connector-curvature="0"
             id="path16757"
             style="fill:#ffffff;fill-opacity:1;fill-rule:nonzero;stroke:none"
             d="M 0,0 C 0,2.425 -1.966,4.391 -4.391,4.391 -6.814,4.391 -8.78,2.425 -8.78,0 c 0,-2.425 1.966,-4.391 4.389,-4.391 C -1.966,-4.391 0,-2.425 0,0" />
        </g>
        <g
           transform="translate(4848.3408,29.46)"
           id="g16759">
          <path
             inkscape:connector-curvature="0"
             id="path16761"
             style="fill:#ffffff;fill-opacity:1;fill-rule:nonzero;stroke:none"
             d="m 0,0 -0.308,-1.668 -33.674,0.219 -0.352,4.61 29.109,3.425 z" />
        </g>
        <g
           transform="translate(4746.5303,47.1543)"
           id="g16763">
          <path
             inkscape:connector-curvature="0"
             id="path16765"
             style="fill:#b3b7b7;fill-opacity:1;fill-rule:nonzero;stroke:none"
             d="m 0,0 h 66.606 c 1.879,0 3.417,1.537 3.417,3.416 v 0.367 c 0,1.88 -1.538,3.417 -3.417,3.417 L 0,7.2 C -1.879,7.2 -3.416,5.663 -3.416,3.783 V 3.416 C -3.416,1.537 -1.879,0 0,0" />
        </g>
        <g
           transform="translate(4668.9199,47.1543)"
           id="g16767">
          <path
             inkscape:connector-curvature="0"
             id="path16769"
             style="fill:#b3b7b7;fill-opacity:1;fill-rule:nonzero;stroke:none"
             d="m 0,0 h 66.606 c 1.879,0 3.416,1.537 3.416,3.416 v 0.367 c 0,1.88 -1.537,3.417 -3.416,3.417 L 0,7.2 C -1.879,7.2 -3.417,5.663 -3.417,3.783 V 3.416 C -3.417,1.537 -1.879,0 0,0" />
        </g>
        <g
           transform="translate(4588.9971,47.1543)"
           id="g16771">
          <path
             inkscape:connector-curvature="0"
             id="path16773"
             style="fill:#b3b7b7;fill-opacity:1;fill-rule:nonzero;stroke:none"
             d="m 0,0 h 66.606 c 1.879,0 3.416,1.537 3.416,3.416 v 0.367 c 0,1.88 -1.537,3.417 -3.416,3.417 L 0,7.2 C -1.879,7.2 -3.417,5.663 -3.417,3.783 V 3.416 C -3.417,1.537 -1.879,0 0,0" />
        </g>
        <g
           transform="translate(4506.6299,47.1543)"
           id="g16775">
          <path
             inkscape:connector-curvature="0"
             id="path16777"
             style="fill:#b3b7b7;fill-opacity:1;fill-rule:nonzero;stroke:none"
             d="m 0,0 h 66.606 c 1.879,0 3.417,1.537 3.417,3.416 v 0.367 c 0,1.88 -1.538,3.417 -3.417,3.417 L 0,7.2 C -1.879,7.2 -3.416,5.663 -3.416,3.783 V 3.416 C -3.416,1.537 -1.879,0 0,0" />
        </g>
        <g
           transform="translate(4825.3027,54.0107)"
           id="g16779">
          <path
             inkscape:connector-curvature="0"
             id="path16781"
             style="fill:#b3b7b7;fill-opacity:1;fill-rule:nonzero;stroke:none"
             d="m 0,0 c 0,0 6.529,0.037 11.008,-3.739 6.06,-5.111 10.076,-9.221 11.46,-12.975 1.383,-3.754 -4.479,-7.441 -8.035,-3.095 -3.557,4.347 -5.204,8.333 -10.669,8.87 C -1.703,-10.402 -7.705,0.211 0,0" />
        </g>
      </g>
      <g
         id="g16783">
        <g
           id="g16785">
          <g
             id="g16791">
            <g
               id="g16793">
              <path
                 d="m 4508.335,41.709 h 308.218 v 2.098 h -308.218 z"
                 style="fill:url(#linearGradient16801);stroke:none"
                 id="path16803"
                 inkscape:connector-curvature="0" />
            </g>
          </g>
        </g>
      </g>
    </g>
  </g>
</svg>
